# xmcd
#
# Track frame offsets:
#	150
#	20487
#	40885
#	61060
#	74937
#	115275
#	132860
#	161035
#	181607
#	208835
#
# Disc length: 3066
#
# Revision: 5
# Processed by: cddbd v1.5.1PL0 Copyright (c) Steve Scherf et al.
# Submitted via: ExactAudioCopy v0.95a5
# Normalized: r4:DSETVAR1
#
DISCID=900bf80a
DTITLE=Various Artist - A Celebration of Blues- Chicago Blues
DYEAR=1996
DGENRE=Blues
TTITLE0=Buddy Guy - She's Out There Somewhere
TTITLE1=Billie Boy Arnold - Whiskey, Beer and Reefer
TTITLE2=Otis Rush - You Got Me Running
TTITLE3=Walter "Shakey" Horton - Big Walter's Boogie
TTITLE4=Jimmy Dawkins - Going Down
TTITLE5=Pinetop Perkins - Hi-Heel Sneakers
TTITLE6=Byther Smith - Play the Blues In Paris
TTITLE7=Luther Allison - Nobody But You
TTITLE8=Son Seals - Now That I'm Down
TTITLE9=Koko Taylor - Mother Nature
EXTD=LABEL =St-Clair Entertainment Group Inc.\nID =CBL25202\nUPC =777966-252025\nCOPYRIGHT =1996
EXTT0=Buddy Guy
EXTT1=Billie Boy Arnold
EXTT2=Otis Rush
EXTT3=Walter "Shakey" Horton
EXTT4=Jimmy Dawkins
EXTT5=Pinetop Perkins
EXTT6=Byther Smith
EXTT7=Luther Allison
EXTT8=Son Seals
EXTT9=Koko Taylor
PLAYORDER=
